# xmcd
#
# Track frame offsets:
#	150
#	16724
#	31689
#	45206
#	62930
#	75005
#	92490
#	109933
#	128153
#	140113
#	167085
#
# Disc length: 3875 seconds
#
# Revision: 2
# Processed by: cddbd v1.5.1PL0 Copyright (c) Steve Scherf et al.
# Submitted via: audiograbber 1.83.01
#
DISCID=7a0f210b
DTITLE=Grupo Musical S.O.S. - Festa de verao
DYEAR=1900
DGENRE=
TTITLE0=Festa de verao
TTITLE1=A sogra
TTITLE2=Dona maria solta meu pinto
TTITLE3=Jura,jura
TTITLE4=Apaixonado por ela
TTITLE5=O que é que eu vou fazer de mim
TTITLE6=Fogo do desejo
TTITLE7=Pra nao morrer de amor
TTITLE8=Casei,dancei...
TTITLE9=Chorando no teu travesseiro
TTITLE10=Daten-CD
EXTD=
EXTT0=
EXTT1=
EXTT2=
EXTT3=
EXTT4=
EXTT5=
EXTT6=
EXTT7=
EXTT8=
EXTT9=
EXTT10=
PLAYORDER=
